<?xml version="1.0" standalone="no"?>
<!DOCTYPE svg PUBLIC "-//W3C//DTD SVG 20010904//EN"
 "http://www.w3.org/TR/2001/REC-SVG-20010904/DTD/svg10.dtd">
<svg version="1.0" xmlns="http://www.w3.org/2000/svg"
 width="491.000000pt" height="491.000000pt" viewBox="0 0 491.000000 491.000000"
 preserveAspectRatio="xMidYMid meet">

<g transform="translate(0.000000,491.000000) scale(0.100000,-0.100000)"
fill="#000000" stroke="none">
<path d="M2197 4700 c-914 -121 -1657 -766 -1902 -1650 -61 -222 -79 -355 -79
-605 -1 -247 13 -360 69 -580 102 -401 294 -734 594 -1036 367 -368 809 -585
1334 -655 242 -33 354 -30 637 12 698 106 1317 548 1659 1185 200 374 301 869
256 1264 -55 493 -212 880 -502 1241 -99 122 -271 288 -396 383 -478 359
-1083 519 -1670 441z m523 -120 c333 -35 651 -146 935 -328 264 -169 519 -433
685 -706 372 -616 405 -1417 86 -2056 -281 -564 -777 -971 -1377 -1134 -283
-77 -646 -90 -949 -36 -717 129 -1339 638 -1609 1317 -155 391 -192 827 -105
1251 117 572 496 1101 1003 1400 280 164 561 259 866 291 114 12 354 12 465 1z"/>
<path d="M2563 4510 c-12 -5 -26 -17 -31 -27 -13 -24 -22 -117 -23 -237 -1
-88 1 -100 20 -119 15 -15 34 -22 62 -22 73 0 86 37 91 262 3 91 1 105 -17
122 -24 24 -71 34 -102 21z m64 -66 c3 -8 2 -75 -3 -147 -9 -132 -9 -132 -34
-132 l-25 0 3 135 c1 74 4 141 7 148 6 17 44 15 52 -4z"/>
<path d="M2293 4494 c-6 -15 15 -371 22 -384 2 -3 33 -3 69 -2 62 4 66 5 66
28 0 22 -4 24 -45 24 -29 0 -45 4 -46 13 0 6 -6 84 -12 172 -10 139 -14 160
-30 163 -9 2 -20 -4 -24 -14z"/>
<path d="M2083 4473 c-18 -3 -21 -10 -17 -36 4 -31 24 -323 24 -353 0 -8 10
-14 25 -14 23 0 25 3 25 50 0 49 1 50 30 50 25 0 31 -5 41 -40 10 -34 15 -39
33 -34 12 4 22 8 24 9 1 1 -13 51 -32 111 -18 60 -44 144 -56 187 -25 83 -26
84 -97 70z m73 -169 c19 -65 20 -76 7 -81 -8 -3 -18 -2 -22 3 -10 11 -24 170
-14 160 4 -4 17 -41 29 -82z"/>
<path d="M2797 4462 c-25 -27 -74 -314 -59 -346 15 -33 75 -50 111 -33 26 12
54 55 45 69 -9 15 -54 9 -54 -7 0 -19 -49 -20 -56 -2 -4 12 29 224 42 270 8
27 58 19 62 -10 3 -17 10 -23 28 -23 20 0 24 5 24 30 0 44 -31 70 -83 70 -29
0 -49 -6 -60 -18z"/>
<path d="M1827 4404 c-56 -17 -57 5 18 -227 28 -89 55 -162 61 -164 5 -1 16 1
24 7 12 7 11 18 -8 72 -12 35 -22 68 -22 73 0 6 16 17 36 24 54 20 62 48 35
131 -22 68 -48 101 -81 99 -8 0 -36 -7 -63 -15z m82 -62 c5 -9 12 -35 16 -56
8 -38 -2 -55 -31 -56 -10 0 -44 92 -44 118 0 19 48 14 59 -6z"/>
<path d="M1635 4333 c-16 -9 -31 -17 -33 -18 -3 -3 18 -84 53 -207 8 -27 10
-48 6 -48 -5 0 -43 45 -86 100 -42 55 -78 100 -81 100 -3 0 -17 -8 -32 -17
-15 -9 -28 -18 -30 -19 -3 -2 167 -336 177 -347 4 -4 15 -1 25 6 17 12 16 17
-14 77 -17 36 -41 82 -52 103 -26 49 -17 58 13 15 13 -18 26 -35 29 -38 4 -3
26 -31 49 -62 24 -32 45 -58 48 -58 18 0 44 24 39 36 -14 35 -56 208 -54 216
2 5 28 -38 57 -94 30 -57 55 -104 57 -106 1 -2 11 2 23 10 20 12 18 17 -71
188 -50 96 -91 176 -92 177 0 1 -14 -6 -31 -14z"/>
<path d="M3163 4293 l-30 -38 -52 17 c-28 9 -51 14 -51 12 0 -2 11 -22 25 -44
14 -22 25 -43 25 -48 0 -4 -13 -23 -30 -42 -34 -40 -36 -50 -14 -50 10 0 14 6
11 14 -3 8 3 22 13 31 31 28 33 52 10 90 -25 40 -23 41 27 20 l37 -16 33 38
32 38 1 -48 c0 -47 1 -49 40 -64 22 -9 37 -20 34 -24 -3 -5 -1 -9 5 -9 29 0
15 20 -24 36 l-45 17 0 53 c0 30 -4 54 -8 54 -5 0 -22 -17 -39 -37z"/>
<path d="M3403 4073 c-100 -163 -102 -167 -81 -181 23 -17 19 -20 69 66 17 28
34 52 39 52 4 0 24 -7 45 -16 33 -14 39 -14 61 1 25 16 68 78 84 121 7 17 6
32 -1 45 -11 22 -86 79 -103 79 -6 -1 -57 -76 -113 -167z m167 65 c0 -17 -54
-98 -66 -98 -5 0 -18 6 -27 13 -16 11 -14 16 18 65 31 46 38 51 55 42 11 -6
20 -16 20 -22z"/>
<path d="M3238 4163 c7 -3 16 -2 19 1 4 3 -2 6 -13 5 -11 0 -14 -3 -6 -6z"/>
<path d="M3195 4148 c-2 -7 -6 -31 -7 -53 l-3 -40 -23 38 c-25 39 -59 49 -92
26 -11 -7 -5 -8 21 -3 34 5 38 3 65 -35 16 -22 32 -41 37 -41 4 0 7 22 7 48 0
26 5 53 12 60 9 9 9 12 0 12 -7 0 -15 -6 -17 -12z"/>
<path d="M1263 4112 l-33 -27 98 -172 c53 -95 99 -173 102 -173 3 1 13 7 24
15 18 13 17 15 -5 46 -40 57 10 93 62 43 27 -26 31 -27 45 -12 15 15 6 28
-117 162 -73 80 -136 146 -139 146 -3 0 -20 -13 -37 -28z m163 -197 c-7 -23
-33 -14 -48 17 -9 18 -29 53 -43 78 -26 44 -25 44 34 -20 33 -36 59 -69 57
-75z"/>
<path d="M3645 3987 c-165 -204 -159 -195 -145 -212 7 -8 15 -15 19 -15 3 0
26 25 50 56 32 41 49 54 65 52 37 -5 32 -43 -15 -98 -35 -41 -40 -52 -29 -65
18 -22 23 -20 70 36 30 36 43 60 42 80 0 21 4 29 16 29 25 0 55 23 84 67 43
64 44 77 2 123 -63 70 -60 71 -159 -53z m123 21 c19 -19 15 -31 -24 -76 -30
-35 -39 -40 -55 -32 -27 15 -24 27 17 76 38 47 44 50 62 32z"/>
<path d="M2325 4013 c-104 -13 -259 -49 -347 -79 -619 -215 -1043 -787 -1065
-1439 -3 -89 -1 -187 6 -240 91 -693 594 -1234 1276 -1372 128 -26 474 -26
595 0 248 53 498 168 685 316 69 55 214 203 270 276 161 209 273 473 311 730
22 148 14 431 -15 557 -40 173 -119 374 -193 493 -304 484 -815 770 -1364 764
-71 -1 -142 -4 -159 -6z m441 -33 c211 -37 454 -138 629 -261 120 -85 305
-271 382 -384 384 -565 373 -1280 -28 -1832 -70 -97 -275 -292 -379 -361 -414
-274 -895 -342 -1360 -192 -402 131 -732 413 -915 785 -103 209 -147 366 -165
585 -52 636 304 1252 884 1530 300 144 620 187 952 130z"/>
<path d="M2415 3962 c-13 -13 -19 -14 -22 -4 -3 6 -11 12 -18 12 -7 0 -15 -6
-18 -12 -3 -10 -9 -10 -25 -1 -11 6 -23 9 -27 5 -3 -4 -28 -8 -54 -9 -66 -2
-131 -21 -131 -38 0 -23 -20 -28 -36 -9 -13 17 -15 18 -24 2 -6 -10 -18 -14
-29 -11 -32 8 -91 -16 -91 -37 0 -27 -17 -34 -29 -13 -10 17 -12 17 -25 -1 -8
-10 -19 -15 -25 -12 -19 12 -50 -12 -44 -34 4 -14 0 -20 -12 -20 -11 0 -15 5
-11 15 7 19 -8 20 -26 2 -7 -8 -26 -17 -41 -21 -21 -5 -27 -12 -27 -32 0 -23
-3 -25 -29 -19 -23 5 -35 0 -64 -28 -20 -18 -47 -39 -61 -45 -15 -7 -26 -20
-26 -31 0 -14 -8 -21 -27 -23 -22 -2 -29 -9 -31 -30 -3 -22 -9 -28 -27 -28
-26 0 -39 -15 -40 -45 0 -14 -7 -20 -25 -20 -20 0 -26 -6 -28 -27 -2 -19 -9
-28 -21 -28 -19 0 -41 -18 -41 -35 0 -7 -18 -31 -40 -54 -40 -42 -49 -61 -30
-61 6 0 10 -7 10 -16 0 -9 -7 -14 -17 -12 -26 4 -43 -10 -43 -37 0 -12 -7 -25
-15 -29 -8 -3 -15 -10 -15 -16 0 -5 7 -10 15 -10 8 0 15 -7 15 -16 0 -12 -6
-15 -24 -10 -25 6 -36 -7 -36 -44 0 -10 -8 -21 -18 -25 -16 -6 -16 -7 2 -20
23 -17 15 -45 -12 -38 -16 4 -21 -3 -31 -40 -6 -25 -8 -52 -5 -60 3 -8 -2 -17
-10 -20 -20 -8 -21 -27 -1 -27 8 0 15 -7 15 -15 0 -10 -7 -15 -17 -13 -22 4
-42 -53 -45 -125 -1 -29 -6 -58 -12 -66 -8 -10 -8 -15 2 -18 14 -5 16 -33 2
-33 -5 0 -10 -7 -10 -15 0 -8 5 -15 10 -15 16 0 12 -27 -5 -34 -8 -3 -15 -10
-15 -16 0 -5 7 -10 15 -10 8 0 15 -7 15 -15 0 -8 -7 -15 -15 -15 -8 0 -15 -7
-15 -15 0 -8 7 -15 15 -15 8 0 15 -7 15 -15 0 -8 -7 -15 -16 -15 -10 0 -14 -7
-12 -17 2 -10 10 -17 16 -15 7 1 12 -5 12 -14 0 -8 -4 -13 -9 -10 -5 3 -12 -1
-15 -9 -3 -9 1 -18 9 -21 18 -7 20 -31 3 -36 -7 -3 -9 -11 -3 -24 4 -10 9 -41
11 -69 5 -67 39 -181 53 -177 13 2 15 -14 2 -22 -10 -7 7 -69 37 -136 51 -112
64 -138 93 -189 53 -94 163 -233 255 -323 220 -216 452 -338 789 -415 64 -14
122 -18 285 -18 178 0 219 3 308 23 153 34 243 66 387 137 253 125 443 296
608 547 112 170 218 475 220 631 1 37 5 67 9 67 4 0 8 7 8 15 0 8 -4 15 -10
15 -5 0 -10 7 -10 15 0 8 5 15 10 15 6 0 10 7 10 15 0 8 -4 15 -10 15 -5 0
-10 7 -10 15 0 8 5 15 10 15 6 0 10 7 10 15 0 8 -4 15 -10 15 -5 0 -10 7 -10
15 0 8 5 15 10 15 17 0 11 27 -7 35 -17 6 -17 7 0 19 17 14 23 36 9 36 -5 0
-9 22 -9 50 -1 88 -23 182 -44 187 -20 5 -27 33 -9 33 6 0 10 7 10 15 0 8 -4
15 -10 15 -5 0 -10 13 -10 29 0 46 -20 91 -40 91 -26 0 -34 17 -14 28 12 7 14
14 6 28 -5 10 -15 32 -21 48 -10 23 -14 26 -26 16 -12 -10 -16 -9 -21 5 -4 9
-2 20 5 24 19 12 -25 91 -50 91 -17 0 -20 5 -16 22 6 20 -18 66 -47 93 -6 6
-16 19 -22 30 -6 11 -20 24 -32 30 -12 5 -22 17 -22 26 0 20 -26 43 -39 35
-12 -8 -25 12 -26 39 0 14 -8 21 -27 23 -19 2 -28 9 -28 21 0 21 -19 41 -40
41 -8 0 -20 10 -25 22 -6 12 -19 26 -30 32 -11 6 -24 16 -30 22 -27 29 -73 53
-93 47 -17 -4 -22 -1 -22 16 0 14 -13 27 -42 41 -26 12 -44 16 -46 10 -2 -5
-11 -10 -19 -10 -11 0 -14 6 -10 21 4 15 -1 23 -21 31 -15 5 -36 15 -47 20
-13 8 -20 7 -23 -1 -5 -16 -32 -14 -32 3 0 22 -26 37 -70 41 -22 1 -47 8 -55
15 -13 11 -18 10 -30 -6 -14 -18 -15 -18 -21 2 -6 24 -45 37 -149 53 -42 6
-64 6 -74 -3 -11 -8 -15 -8 -18 2 -3 6 -11 12 -18 12 -7 0 -15 -6 -18 -12 -3
-10 -9 -8 -24 5 -24 21 -33 22 -33 2 0 -8 -7 -15 -15 -15 -8 0 -15 7 -15 15 0
18 -26 20 -33 3 -3 -10 -9 -10 -24 -1 -16 9 -24 8 -38 -5z m-235 -47 c0 -8 -7
-15 -15 -15 -8 0 -15 7 -15 15 0 8 7 15 15 15 8 0 15 -7 15 -15z m60 0 c0 -8
-7 -15 -15 -15 -8 0 -15 7 -15 15 0 8 7 15 15 15 8 0 15 -7 15 -15z m58 3 c-6
-18 -28 -21 -28 -4 0 9 7 16 16 16 9 0 14 -5 12 -12z m62 2 c0 -5 -7 -10 -15
-10 -8 0 -15 5 -15 10 0 6 7 10 15 10 8 0 15 -4 15 -10z m60 0 c0 -5 -7 -10
-15 -10 -8 0 -15 5 -15 10 0 6 7 10 15 10 8 0 15 -4 15 -10z m55 0 c-3 -5 -10
-10 -16 -10 -5 0 -9 5 -9 10 0 6 7 10 16 10 8 0 12 -4 9 -10z m65 6 c0 -11
-19 -15 -25 -6 -3 5 1 10 9 10 9 0 16 -2 16 -4z m60 -6 c0 -5 -7 -10 -15 -10
-8 0 -15 5 -15 10 0 6 7 10 15 10 8 0 15 -4 15 -10z m60 0 c0 -5 -7 -10 -15
-10 -8 0 -15 5 -15 10 0 6 7 10 15 10 8 0 15 -4 15 -10z m60 -5 c0 -8 -7 -15
-15 -15 -8 0 -15 7 -15 15 0 8 7 15 15 15 8 0 15 -7 15 -15z m60 0 c0 -8 -7
-15 -15 -15 -8 0 -15 7 -15 15 0 8 7 15 15 15 8 0 15 -7 15 -15z m60 1 c0 -21
-21 -31 -30 -15 -5 7 -6 17 -4 21 9 14 34 9 34 -6z m-116 -42 c55 -9 154 -33
218 -54 233 -77 395 -177 574 -355 244 -242 384 -525 420 -852 5 -52 10 -63
25 -63 11 0 19 -7 19 -15 0 -8 -7 -15 -15 -15 -8 0 -15 -9 -15 -20 0 -13 5
-18 15 -14 9 4 15 0 15 -10 0 -9 -7 -16 -15 -16 -8 0 -15 -7 -15 -15 0 -8 7
-15 15 -15 8 0 15 -7 15 -15 0 -8 -7 -15 -15 -15 -10 0 -15 -10 -15 -29 0 -16
-3 -36 -6 -45 -4 -12 0 -16 16 -16 15 0 20 -5 18 -17 -2 -10 -11 -17 -20 -15
-18 3 -26 -20 -34 -110 -4 -35 -12 -69 -18 -77 -8 -11 -8 -15 2 -18 17 -6 15
-33 -3 -33 -8 0 -15 -7 -15 -15 0 -8 7 -15 15 -15 8 0 15 -7 15 -16 0 -10 -7
-14 -22 -12 -18 2 -25 -5 -39 -44 -9 -27 -13 -48 -8 -48 5 0 9 -7 9 -15 0 -8
-7 -15 -15 -15 -20 0 -55 -72 -48 -99 4 -15 1 -21 -10 -21 -18 0 -72 -83 -57
-88 20 -7 10 -32 -12 -29 -18 1 -25 -5 -33 -30 -5 -18 -15 -33 -22 -33 -7 0
-20 -12 -30 -27 -24 -38 -192 -207 -221 -222 -13 -7 -27 -22 -31 -34 -5 -12
-16 -22 -26 -22 -18 0 -28 -13 -39 -49 -5 -15 -9 -16 -21 -6 -11 9 -22 7 -55
-11 -22 -12 -40 -29 -40 -36 0 -7 -11 -13 -25 -13 -34 0 -93 -32 -99 -53 -3
-14 -9 -16 -21 -9 -26 14 -89 -11 -93 -37 -3 -21 -32 -31 -32 -11 0 16 -22 12
-35 -7 -10 -13 -16 -15 -27 -6 -8 7 -19 8 -28 3 -8 -5 -17 -7 -21 -4 -4 2 -30
-1 -57 -7 -43 -9 -49 -13 -44 -31 4 -16 1 -19 -14 -16 -10 2 -18 10 -16 16 4
22 -26 12 -32 -11 l-6 -22 -19 25 c-18 22 -20 23 -26 7 -8 -18 -35 -24 -35 -7
0 6 -7 10 -15 10 -8 0 -15 -4 -15 -10 0 -5 -7 -10 -15 -10 -8 0 -15 5 -15 10
0 6 -7 10 -15 10 -8 0 -15 -4 -15 -10 0 -14 -37 -12 -44 3 -3 8 -8 6 -17 -7
-11 -18 -12 -18 -30 5 -16 21 -18 22 -24 6 -9 -21 -35 -23 -35 -2 0 8 -7 15
-15 15 -8 0 -15 -7 -15 -15 0 -8 -7 -15 -15 -15 -8 0 -15 9 -15 19 0 16 -9 21
-47 26 -27 3 -57 10 -69 15 -12 4 -28 4 -38 -2 -13 -7 -21 -5 -32 9 -11 13
-17 14 -20 6 -9 -20 -34 -15 -34 7 0 14 -11 22 -41 30 -23 6 -47 9 -55 6 -7
-3 -18 4 -24 14 -13 24 -30 26 -30 5 0 -8 -7 -15 -15 -15 -18 0 -20 30 -2 30
22 1 -26 30 -50 30 -13 0 -23 4 -23 10 0 5 -18 21 -41 35 -29 19 -44 23 -53
16 -15 -13 -26 -4 -26 20 0 20 -28 39 -47 32 -7 -3 -13 1 -13 9 0 19 -143 145
-148 130 -5 -17 -32 -15 -32 2 0 8 6 16 13 19 8 3 5 12 -12 28 -16 17 -25 20
-28 12 -7 -18 -33 -16 -33 2 0 8 7 15 16 15 11 0 4 13 -22 45 -20 25 -39 43
-42 40 -3 -3 -11 9 -16 27 -8 23 -18 34 -34 36 -18 3 -23 8 -19 24 6 23 -27
84 -54 98 -11 6 -16 16 -12 26 7 20 -28 94 -46 94 -8 0 -11 7 -8 20 8 32 -18
95 -42 98 -24 4 -29 32 -6 32 20 0 19 16 -1 24 -10 4 -14 14 -11 26 3 11 -3
64 -12 118 -13 74 -21 98 -34 100 -9 2 -17 10 -17 19 0 9 6 13 15 9 10 -4 15
1 15 14 0 11 -7 20 -15 20 -8 0 -15 7 -15 15 0 8 7 15 15 15 23 0 18 27 -7 33
-21 6 -18 22 4 22 18 0 21 25 4 31 -21 8 -21 34 0 34 10 0 14 7 12 18 -2 9
-10 16 -16 14 -7 -1 -12 5 -12 13 0 8 6 12 12 10 10 -4 19 35 37 142 13 82 26
153 30 158 4 6 20 46 35 90 92 266 304 540 550 708 161 109 394 202 581 231
125 20 346 19 469 0z m-724 -19 c0 -8 -6 -15 -14 -15 -17 0 -28 14 -19 24 12
12 33 6 33 -9z m58 3 c-6 -18 -28 -21 -28 -4 0 9 7 16 16 16 9 0 14 -5 12 -12z
m902 2 c0 -5 -7 -10 -15 -10 -8 0 -15 5 -15 10 0 6 7 10 15 10 8 0 15 -4 15
-10z m60 -5 c0 -8 -7 -15 -15 -15 -8 0 -15 7 -15 15 0 8 7 15 15 15 8 0 15 -7
15 -15z m-1142 -57 c-6 -18 -28 -21 -28 -4 0 9 7 16 16 16 9 0 14 -5 12 -12z
m1262 -3 c0 -8 -7 -15 -15 -15 -8 0 -15 7 -15 15 0 8 7 15 15 15 8 0 15 -7 15
-15z m-1380 -60 c0 -8 -6 -15 -14 -15 -17 0 -28 14 -19 24 12 12 33 6 33 -9z
m1498 -2 c-4 -22 -22 -20 -26 1 -2 10 3 16 13 16 10 0 15 -7 13 -17z m-1620
-60 c-5 -25 -28 -28 -28 -4 0 12 6 21 16 21 9 0 14 -7 12 -17z m52 7 c0 -5 -4
-10 -10 -10 -5 0 -10 5 -10 10 0 6 5 10 10 10 6 0 10 -4 10 -10z m1630 0 c0
-5 -4 -10 -9 -10 -6 0 -13 5 -16 10 -3 6 1 10 9 10 9 0 16 -4 16 -10z m60 -5
c0 -8 -7 -15 -15 -15 -8 0 -15 7 -15 15 0 8 7 15 15 15 8 0 15 -7 15 -15z
m-1800 -60 c0 -8 -7 -15 -15 -15 -8 0 -15 7 -15 15 0 8 7 15 15 15 8 0 15 -7
15 -15z m1860 0 c0 -8 -6 -15 -14 -15 -17 0 -28 14 -19 24 12 12 33 6 33 -9z
m-1922 -57 c-6 -18 -28 -21 -28 -4 0 9 7 16 16 16 9 0 14 -5 12 -12z m1982 -4
c0 -9 -5 -14 -12 -12 -18 6 -21 28 -4 28 9 0 16 -7 16 -16z m-2042 -56 c-6
-18 -28 -21 -28 -4 0 9 7 16 16 16 9 0 14 -5 12 -12z m2102 -3 c0 -8 -7 -15
-15 -15 -8 0 -15 7 -15 15 0 8 7 15 15 15 8 0 15 -7 15 -15z m-2162 -57 c-6
-18 -28 -21 -28 -4 0 9 7 16 16 16 9 0 14 -5 12 -12z m2222 -3 c0 -8 -7 -15
-15 -15 -8 0 -15 7 -15 15 0 8 7 15 15 15 8 0 15 -7 15 -15z m-2280 -60 c0 -8
-7 -15 -15 -15 -8 0 -15 7 -15 15 0 8 7 15 15 15 8 0 15 -7 15 -15z m2340 0
c0 -8 -6 -15 -14 -15 -17 0 -28 14 -19 24 12 12 33 6 33 -9z m-2400 -60 c0 -8
-7 -15 -15 -15 -8 0 -15 7 -15 15 0 8 7 15 15 15 8 0 15 -7 15 -15z m2460 0
c0 -8 -7 -15 -15 -15 -8 0 -15 7 -15 15 0 8 7 15 15 15 8 0 15 -7 15 -15z
m-2480 -61 c0 -8 -5 -12 -10 -9 -6 4 -8 11 -5 16 9 14 15 11 15 -7z m2480 1
c0 -8 -4 -15 -9 -15 -5 0 -11 7 -15 15 -3 9 0 15 9 15 8 0 15 -7 15 -15z
m-2520 -60 c0 -8 -6 -15 -14 -15 -17 0 -28 14 -19 24 12 12 33 6 33 -9z m2578
-2 c-4 -22 -22 -20 -26 1 -2 10 3 16 13 16 10 0 15 -7 13 -17z m-2640 -115
c-6 -18 -28 -21 -28 -4 0 9 7 16 16 16 9 0 14 -5 12 -12z m2702 -3 c0 -8 -7
-15 -15 -15 -8 0 -15 7 -15 15 0 8 7 15 15 15 8 0 15 -7 15 -15z m0 -61 c0 -8
-4 -12 -10 -9 -5 3 -10 10 -10 16 0 5 5 9 10 9 6 0 10 -7 10 -16z m-2760 -59
c0 -8 -7 -15 -15 -15 -8 0 -15 7 -15 15 0 8 7 15 15 15 8 0 15 -7 15 -15z
m2820 0 c0 -8 -7 -15 -15 -15 -8 0 -15 7 -15 15 0 8 7 15 15 15 8 0 15 -7 15
-15z m-2830 -60 c0 -8 -4 -15 -10 -15 -5 0 -10 7 -10 15 0 8 5 15 10 15 6 0
10 -7 10 -15z m2830 -1 c0 -17 -22 -14 -28 4 -2 7 3 12 12 12 9 0 16 -7 16
-16z m-2880 -119 c0 -8 -7 -15 -15 -15 -8 0 -15 7 -15 15 0 8 7 15 15 15 8 0
15 -7 15 -15z m2938 -2 c-5 -25 -28 -28 -28 -4 0 12 6 21 16 21 9 0 14 -7 12
-17z m-2938 -58 c0 -8 -7 -15 -15 -15 -8 0 -15 7 -15 15 0 8 7 15 15 15 8 0
15 -7 15 -15z m2940 0 c0 -8 -7 -15 -15 -15 -8 0 -15 7 -15 15 0 8 7 15 15 15
8 0 15 -7 15 -15z m-2945 -54 c7 -12 -12 -24 -25 -16 -11 7 -4 25 10 25 5 0
11 -4 15 -9z m2945 -6 c0 -8 -7 -15 -15 -15 -8 0 -15 7 -15 15 0 8 7 15 15 15
8 0 15 -7 15 -15z m-2950 -60 c0 -8 -4 -15 -10 -15 -5 0 -10 7 -10 15 0 8 5
15 10 15 6 0 10 -7 10 -15z m2950 0 c0 -8 -4 -15 -10 -15 -5 0 -10 7 -10 15 0
8 5 15 10 15 6 0 10 -7 10 -15z m0 -240 c0 -8 -4 -15 -10 -15 -5 0 -10 7 -10
15 0 8 5 15 10 15 6 0 10 -7 10 -15z m-2940 -120 c0 -8 -7 -15 -15 -15 -8 0
-15 7 -15 15 0 8 7 15 15 15 8 0 15 -7 15 -15z m2940 0 c0 -8 -7 -15 -15 -15
-8 0 -15 7 -15 15 0 8 7 15 15 15 8 0 15 -7 15 -15z m-2940 -60 c0 -8 -6 -15
-14 -15 -17 0 -28 14 -19 24 12 12 33 6 33 -9z m2940 0 c0 -8 -7 -15 -15 -15
-8 0 -15 7 -15 15 0 8 7 15 15 15 8 0 15 -7 15 -15z m-2940 -60 c0 -8 -7 -15
-15 -15 -8 0 -15 7 -15 15 0 8 7 15 15 15 8 0 15 -7 15 -15z m2932 0 c0 -5 -5
-11 -11 -13 -6 -2 -11 4 -11 13 0 9 5 15 11 13 6 -2 11 -8 11 -13z m-2932 -60
c0 -8 -4 -15 -10 -15 -5 0 -10 7 -10 15 0 8 5 15 10 15 6 0 10 -7 10 -15z
m2930 0 c0 -8 -4 -15 -10 -15 -5 0 -10 7 -10 15 0 8 5 15 10 15 6 0 10 -7 10
-15z m-2870 -120 c0 -8 -7 -15 -15 -15 -8 0 -15 7 -15 15 0 8 7 15 15 15 8 0
15 -7 15 -15z m2820 0 c0 -8 -9 -15 -20 -15 -20 0 -26 11 -13 23 12 13 33 7
33 -8z m-2820 -60 c0 -8 -4 -15 -10 -15 -5 0 -10 7 -10 15 0 8 5 15 10 15 6 0
10 -7 10 -15z m2810 6 c0 -6 -4 -13 -10 -16 -5 -3 -10 1 -10 9 0 9 5 16 10 16
6 0 10 -4 10 -9z m-2750 -66 c0 -8 -7 -15 -15 -15 -8 0 -15 7 -15 15 0 8 7 15
15 15 8 0 15 -7 15 -15z m2700 0 c0 -8 -7 -15 -15 -15 -8 0 -15 7 -15 15 0 8
7 15 15 15 8 0 15 -7 15 -15z m-2700 -61 c0 -9 -5 -14 -12 -12 -18 6 -21 28
-4 28 9 0 16 -7 16 -16z m2694 1 c-7 -17 -20 -20 -28 -6 -7 10 3 21 20 21 8 0
11 -6 8 -15z m-2636 -62 c-4 -22 -22 -20 -26 1 -2 10 3 16 13 16 10 0 15 -7
13 -17z m2582 2 c0 -8 -7 -15 -15 -15 -8 0 -15 7 -15 15 0 8 7 15 15 15 8 0
15 -7 15 -15z m-2580 -61 c0 -8 -4 -12 -10 -9 -5 3 -10 10 -10 16 0 5 5 9 10
9 6 0 10 -7 10 -16z m2570 7 c0 -6 -4 -13 -10 -16 -5 -3 -10 1 -10 9 0 9 5 16
10 16 6 0 10 -4 10 -9z m-2510 -66 c0 -8 -7 -15 -15 -15 -8 0 -15 7 -15 15 0
8 7 15 15 15 8 0 15 -7 15 -15z m2460 1 c0 -8 -7 -16 -15 -20 -10 -4 -15 1
-15 14 0 11 7 20 15 20 8 0 15 -6 15 -14z m-2400 -61 c0 -8 -7 -15 -15 -15 -8
0 -15 7 -15 15 0 8 7 15 15 15 8 0 15 -7 15 -15z m2340 0 c0 -8 -7 -15 -15
-15 -8 0 -15 7 -15 15 0 8 7 15 15 15 8 0 15 -7 15 -15z m-2340 -55 c0 -5 -2
-10 -4 -10 -3 0 -8 5 -11 10 -3 6 -1 10 4 10 6 0 11 -4 11 -10z m2280 -5 c0
-8 -7 -15 -15 -15 -8 0 -15 7 -15 15 0 8 7 15 15 15 8 0 15 -7 15 -15z m-2220
-55 c0 -5 -4 -10 -10 -10 -5 0 -10 5 -10 10 0 6 5 10 10 10 6 0 10 -4 10 -10z
m2160 -5 c0 -8 -7 -15 -15 -15 -8 0 -15 7 -15 15 0 8 7 15 15 15 8 0 15 -7 15
-15z m-2100 -55 c0 -5 -4 -10 -9 -10 -6 0 -13 5 -16 10 -3 6 1 10 9 10 9 0 16
-4 16 -10z m58 -8 c2 -7 -3 -12 -12 -12 -9 0 -16 7 -16 16 0 17 22 14 28 -4z
m1980 1 c-5 -25 -28 -28 -28 -4 0 12 6 21 16 21 9 0 14 -7 12 -17z m52 13 c0
-3 -4 -8 -10 -11 -5 -3 -10 -1 -10 4 0 6 5 11 10 11 6 0 10 -2 10 -4z m-2030
-66 c0 -5 -2 -10 -4 -10 -3 0 -8 5 -11 10 -3 6 -1 10 4 10 6 0 11 -4 11 -10z
m60 -5 c0 -8 -7 -15 -15 -15 -8 0 -15 7 -15 15 0 8 7 15 15 15 8 0 15 -7 15
-15z m1860 0 c0 -8 -7 -15 -15 -15 -8 0 -15 7 -15 15 0 8 7 15 15 15 8 0 15
-7 15 -15z m-1800 -60 c0 -8 -7 -15 -15 -15 -8 0 -15 7 -15 15 0 8 7 15 15 15
8 0 15 -7 15 -15z m1740 0 c0 -8 -7 -15 -15 -15 -8 0 -15 7 -15 15 0 8 7 15
15 15 8 0 15 -7 15 -15z m-1680 -55 c0 -5 -4 -10 -9 -10 -6 0 -13 5 -16 10 -3
6 1 10 9 10 9 0 16 -4 16 -10z m58 -8 c2 -7 -3 -12 -12 -12 -9 0 -16 7 -16 16
0 17 22 14 28 -4z m1502 3 c0 -8 -7 -15 -15 -15 -16 0 -20 12 -8 23 11 12 23
8 23 -8z m50 5 c0 -5 -4 -10 -10 -10 -5 0 -10 5 -10 10 0 6 5 10 10 10 6 0 10
-4 10 -10z m-1490 -66 c0 -9 -5 -14 -12 -12 -18 6 -21 28 -4 28 9 0 16 -7 16
-16z m1320 1 c0 -8 -7 -15 -15 -15 -8 0 -15 7 -15 15 0 8 7 15 15 15 8 0 15
-7 15 -15z m60 6 c0 -12 -28 -22 -34 -12 -3 5 -3 11 1 15 9 9 33 7 33 -3z
m-1260 -61 c0 -5 -7 -10 -15 -10 -8 0 -15 5 -15 10 0 6 7 10 15 10 8 0 15 -4
15 -10z m60 -5 c0 -8 -7 -15 -15 -15 -8 0 -15 7 -15 15 0 8 7 15 15 15 8 0 15
-7 15 -15z m1020 0 c0 -8 -7 -15 -15 -15 -8 0 -15 7 -15 15 0 8 7 15 15 15 8
0 15 -7 15 -15z m60 5 c0 -5 -7 -10 -15 -10 -8 0 -15 5 -15 10 0 6 7 10 15 10
8 0 15 -4 15 -10z m-960 -60 c0 -5 -7 -10 -15 -10 -8 0 -15 5 -15 10 0 6 7 10
15 10 8 0 15 -4 15 -10z m60 -5 c0 -8 -7 -15 -15 -15 -8 0 -15 7 -15 15 0 8 7
15 15 15 8 0 15 -7 15 -15z m60 0 c0 -8 -6 -15 -14 -15 -17 0 -28 14 -19 24
12 12 33 6 33 -9z m540 0 c0 -8 -7 -15 -15 -15 -8 0 -15 7 -15 15 0 8 7 15 15
15 8 0 15 -7 15 -15z m60 0 c0 -8 -6 -15 -14 -15 -17 0 -28 14 -19 24 12 12
33 6 33 -9z m55 5 c-3 -5 -10 -10 -16 -10 -5 0 -9 5 -9 10 0 6 7 10 16 10 8 0
12 -4 9 -10z"/>
<path d="M2360 3864 c-352 -45 -618 -168 -852 -393 -175 -168 -298 -359 -372
-582 -54 -160 -70 -268 -70 -459 1 -179 19 -298 71 -450 162 -477 552 -826
1052 -941 127 -30 383 -37 523 -15 308 49 563 180 789 405 268 269 402 574
416 948 10 257 -29 453 -131 668 -199 418 -567 707 -1016 796 -92 18 -338 32
-410 23z m348 -30 c279 -41 543 -171 749 -368 168 -160 268 -304 347 -500 197
-490 104 -1053 -243 -1453 -346 -401 -900 -576 -1412 -447 -462 117 -837 461
-993 911 -48 139 -66 242 -73 408 -19 472 189 906 571 1191 176 132 429 235
647 263 107 14 296 12 407 -5z"/>
<path d="M2444 3623 c-145 -99 -339 -176 -549 -218 -108 -22 -151 -26 -253
-23 l-122 3 0 -890 c0 -582 4 -903 10 -927 22 -78 121 -172 208 -198 20 -6
114 -15 207 -20 102 -5 194 -15 230 -25 91 -25 193 -83 258 -147 l59 -58 66
61 c122 114 278 169 481 169 125 0 197 12 260 42 58 28 118 88 145 147 21 46
21 49 24 946 l3 900 -122 -3 c-249 -7 -569 85 -781 225 l-75 49 -49 -33z m120
-307 c52 -22 100 -70 131 -133 24 -48 29 -73 32 -148 3 -84 2 -92 -21 -119
l-24 -29 -56 20 c-30 11 -58 18 -60 15 -3 -3 -3 -22 0 -44 l7 -38 -56 0 c-52
0 -56 2 -75 34 -11 18 -27 60 -36 92 -9 33 -22 69 -28 81 -8 17 -7 30 7 58 9
20 15 46 12 56 -3 12 5 31 20 50 21 25 31 29 52 24 38 -9 63 -7 71 5 19 30 65
-35 54 -77 -3 -10 1 -33 9 -52 14 -34 15 -34 26 -12 8 13 10 39 5 66 -6 45
-38 81 -100 113 -33 17 -113 -15 -137 -55 -31 -53 -40 -141 -21 -213 17 -68
19 -65 -48 -104 -26 -16 -27 -15 -50 16 -19 27 -23 45 -22 103 1 202 160 353
308 291z m-674 -284 c-8 -3 -30 -21 -47 -41 -35 -37 -39 -37 -23 4 9 24 69 60
80 48 3 -3 -2 -8 -10 -11z m1182 4 c56 -18 92 -36 84 -43 -3 -3 -12 -1 -20 6
-8 6 -30 13 -50 15 -20 2 -39 6 -43 10 -3 3 -31 6 -62 6 -40 0 -52 3 -41 10
22 14 78 12 132 -4z m-1112 -21 c0 -8 7 -15 15 -15 8 0 15 7 15 15 0 10 10 15
33 15 l34 0 -2 -52 -2 -53 -46 -19 c-31 -13 -47 -26 -47 -37 0 -22 -17 -34
-22 -17 -3 7 -17 -1 -35 -22 -20 -22 -35 -31 -46 -27 -20 8 -35 59 -19 65 9 3
9 9 1 23 -13 24 4 51 27 42 12 -4 12 -8 2 -21 -11 -13 -10 -14 2 -10 21 7 20
53 -2 52 -14 -1 -15 2 -6 21 12 26 42 23 34 -4 -3 -9 1 -27 9 -41 15 -25 15
-25 9 8 -4 20 -3 32 5 32 6 0 11 7 11 15 0 8 -7 15 -16 15 -14 0 -14 3 -4 15
7 8 21 15 31 15 11 0 19 -7 19 -15z m1085 -16 c37 -22 42 -41 12 -47 -10 -2
-17 3 -17 11 0 8 -15 24 -32 36 -44 28 -11 28 37 0z m-61 -14 c20 -8 36 -20
36 -25 0 -15 -11 -12 -55 15 -45 28 -36 33 19 10z m158 -32 c36 -39 50 -70 50
-109 0 -40 -25 -84 -48 -84 -11 0 -14 -6 -8 -22 6 -20 5 -21 -8 -10 -11 9 -32
10 -79 3 -35 -5 -66 -7 -69 -4 -8 7 24 23 48 23 13 0 36 7 52 15 24 13 30 22
30 49 0 19 -9 45 -21 60 -29 36 -30 57 -6 84 26 28 28 28 59 -5z m-1338 -57
c-5 -32 -2 -50 11 -70 10 -14 13 -26 7 -26 -32 0 -58 87 -35 119 21 30 23 26
17 -23z m851 -86 c4 -6 -6 -10 -22 -9 -25 0 -26 1 -8 9 11 5 21 9 22 9 1 1 5
-3 8 -9z m-812 -30 c30 0 35 -3 31 -17 -5 -14 -4 -15 4 -4 6 8 8 20 6 26 -5
11 24 25 54 25 18 0 15 -26 -5 -46 -10 -9 -18 -22 -18 -28 -4 -53 -35 -83 -35
-32 0 12 -5 27 -12 34 -18 18 -48 15 -48 -5 -1 -22 -39 45 -39 67 0 12 2 12
13 -2 8 -11 27 -18 49 -18z m577 20 c0 -5 -5 -10 -11 -10 -5 0 -7 5 -4 10 3 6
8 10 11 10 2 0 4 -4 4 -10z m120 -4 c0 -3 -4 -8 -10 -11 -5 -3 -10 -1 -10 4 0
6 5 11 10 11 6 0 10 -2 10 -4z m-70 -44 c47 -2 102 0 123 6 49 14 47 1 -4 -27
-53 -30 -130 -31 -187 -2 -42 22 -72 52 -36 36 10 -4 57 -10 104 -13z m460
-22 c0 -5 -4 -10 -10 -10 -5 0 -10 5 -10 10 0 6 5 10 10 10 6 0 10 -4 10 -10z
m-379 -97 c-7 -27 -51 -53 -51 -30 1 16 22 42 40 50 8 3 16 6 17 6 1 1 -2 -11
-6 -26z m-81 -65 c19 -27 20 -30 4 -18 -22 17 -34 32 -34 43 0 13 6 8 30 -25z
m180 12 c0 -5 -17 -18 -38 -29 -21 -11 -44 -27 -51 -35 -19 -23 -34 -20 -21 4
6 11 17 20 25 20 8 0 27 11 42 25 30 26 43 31 43 15z m-303 -36 c-21 -14 -41
-24 -43 -21 -8 7 47 47 65 47 9 0 -1 -11 -22 -26z m350 10 c-3 -3 -12 -4 -19
-1 -8 3 -5 6 6 6 11 1 17 -2 13 -5z m-287 -34 c0 -5 -5 -10 -11 -10 -5 0 -7 5
-4 10 3 6 8 10 11 10 2 0 4 -4 4 -10z m-147 -16 c-5 -14 -3 -15 15 -5 11 6 39
11 61 11 52 0 46 -22 -11 -41 -47 -15 -98 -57 -98 -79 0 -11 5 -9 18 7 9 12
35 30 57 39 22 9 43 21 47 28 6 8 8 7 8 -1 0 -7 11 -13 25 -13 26 0 33 -14 14
-25 -6 -4 -8 -12 -6 -19 3 -7 -1 -23 -9 -37 -17 -30 -17 -39 -1 -39 6 0 19 13
28 29 12 21 24 29 42 28 14 -1 23 -6 20 -10 -8 -13 18 -37 38 -37 12 0 19 7
19 19 0 11 6 21 13 24 9 3 9 7 -1 19 -7 9 -10 23 -6 32 5 12 2 15 -10 10 -9
-3 -16 -1 -16 5 0 6 11 11 25 11 14 0 25 5 25 10 0 6 5 10 11 10 6 0 8 -7 5
-16 -4 -10 1 -25 10 -35 10 -11 12 -19 6 -19 -21 0 -13 -14 18 -35 17 -11 28
-25 26 -32 -3 -7 1 -10 9 -7 7 3 13 -1 12 -8 -1 -18 26 -78 35 -78 12 0 10 13
-7 54 -9 20 -13 42 -9 47 3 6 -3 24 -15 40 -13 18 -17 29 -9 29 6 0 3 7 -8 15
-18 14 -17 14 12 15 21 0 48 -12 80 -37 l49 -36 -40 41 c-21 23 -45 42 -53 42
-7 0 -11 4 -8 9 4 5 1 11 -6 13 -26 9 3 26 31 18 15 -4 39 -6 53 -3 63 12 423
-79 626 -159 l32 -12 0 -163 c1 -90 1 -201 1 -248 0 -47 0 -88 -1 -91 0 -4 -7
-1 -15 6 -9 7 -13 20 -10 30 3 10 -5 28 -19 43 -13 15 -27 36 -31 47 -3 11
-12 20 -20 20 -7 0 -22 16 -34 35 -28 47 -5 46 37 -2 31 -37 33 -37 38 -15 5
18 9 20 20 11 18 -15 18 2 -1 27 -8 10 -15 30 -15 44 -1 22 -2 23 -11 7 -6 -9
-7 -27 -3 -40 6 -20 5 -20 -10 -8 -11 9 -16 24 -13 38 4 19 1 23 -12 18 -9 -4
-42 -16 -73 -27 -32 -11 -58 -23 -58 -26 0 -4 17 -25 38 -47 43 -46 57 -101
22 -90 -14 5 -20 2 -20 -9 0 -10 -9 -16 -22 -17 -17 -1 -19 -2 -5 -6 18 -5 24
-23 7 -23 -5 0 -18 -10 -30 -22 l-20 -22 -6 33 c-6 28 -10 32 -30 27 -28 -7
-32 9 -7 36 15 17 15 18 -1 18 -9 0 -26 6 -37 13 -17 10 -23 10 -26 0 -8 -23
-33 -14 -33 12 0 28 -27 35 -36 10 -4 -8 -15 -15 -26 -15 -14 0 -18 -6 -16
-22 2 -11 -3 -23 -9 -25 -7 -3 -13 0 -13 6 0 6 -9 11 -20 11 -11 0 -20 5 -20
10 0 6 -9 10 -20 10 -11 0 -20 4 -20 9 0 5 -8 12 -17 15 -37 14 -63 31 -63 41
0 17 -91 58 -103 46 -5 -5 -16 -7 -24 -4 -8 3 -27 -4 -43 -16 -53 -38 -67 -14
-77 127 -4 62 -7 71 -19 61 -20 -16 -19 -145 1 -165 11 -12 15 -39 15 -110 l0
-94 68 -2 c37 0 74 0 82 1 8 1 95 2 193 3 97 1 177 6 177 11 0 4 10 5 21 2 12
-4 27 -8 33 -9 26 -5 58 -28 47 -35 -12 -8 -34 -71 -24 -71 2 0 14 10 25 23
20 22 20 17 2 -28 -10 -24 33 -19 46 6 7 11 18 18 25 15 9 -3 12 0 8 10 -4 10
0 12 10 8 20 -7 25 -39 13 -86 -12 -45 -41 -52 -56 -13 -12 32 -22 33 -14 1 4
-18 1 -25 -15 -29 -12 -3 -21 -10 -21 -17 0 -6 5 -8 11 -4 6 3 15 0 20 -7 8
-12 11 -11 19 3 6 9 17 15 25 12 8 -4 12 -10 9 -15 -3 -5 0 -9 5 -9 6 0 11 4
11 9 0 5 7 11 15 14 11 5 12 1 5 -19 -13 -33 -13 -37 4 -31 7 3 18 1 23 -4 6
-6 14 -4 23 6 13 16 110 22 110 7 0 -18 -57 -93 -89 -116 -28 -21 -40 -24 -86
-19 -29 3 -102 2 -161 -2 -91 -7 -105 -10 -81 -19 15 -5 27 -13 27 -17 0 -3
-35 -9 -77 -13 -159 -14 -289 -67 -388 -158 -55 -50 -70 -57 -78 -35 -8 22
-127 108 -184 133 -95 43 -171 57 -343 64 -205 8 -246 22 -321 112 -40 49 -49
66 -49 99 0 21 5 39 10 39 6 0 10 -12 10 -26 0 -19 4 -25 15 -21 18 8 32 -13
15 -23 -9 -6 -9 -12 -1 -29 11 -20 20 -21 131 -21 66 0 120 2 120 4 0 2 -27
14 -60 26 -44 16 -60 27 -60 41 0 11 -4 19 -10 19 -5 0 -9 -3 -9 -7 3 -19 -2
-33 -12 -33 -6 0 -8 9 -4 22 6 16 4 20 -8 15 -8 -3 -19 -1 -25 5 -6 6 -25 11
-42 10 -16 0 -30 4 -30 9 0 5 9 9 20 9 15 0 22 8 26 29 4 20 11 28 20 24 8 -3
14 0 14 6 0 6 4 11 9 11 5 0 9 -6 8 -12 0 -7 1 -29 2 -48 l3 -35 12 34 c7 19
18 37 24 39 7 2 12 19 12 38 0 19 5 34 11 34 6 0 9 7 5 15 -3 8 -1 15 3 15 5
0 7 9 4 20 -6 24 -11 25 -35 3 -11 -9 -18 -11 -18 -5 0 24 -21 11 -31 -18 -6
-16 -14 -30 -19 -30 -8 0 -28 21 -29 30 0 3 -3 13 -7 23 -5 13 -10 15 -19 7
-9 -8 -15 -8 -20 0 -3 5 -15 10 -26 10 -10 0 -19 6 -19 13 0 9 35 17 118 25
178 20 185 21 194 34 5 10 11 8 21 -6 15 -21 24 -18 74 25 17 14 33 35 37 46
7 21 49 46 60 36 12 -12 6 -25 -8 -20 -8 3 -20 -1 -28 -10 -11 -13 -11 -17 0
-21 15 -5 -3 -32 -22 -32 -6 0 -27 -13 -47 -29 -38 -32 -101 -61 -130 -61 -11
0 -19 -4 -19 -9 0 -5 46 -10 103 -11 124 -2 106 -3 197 10 95 13 97 13 145 3
22 -5 54 -8 70 -7 17 1 61 2 98 3 38 0 66 5 63 9 -3 5 -6 47 -7 93 l-1 84 -32
4 c-17 2 -42 3 -56 3 -14 -1 -45 -1 -70 -1 -25 0 -52 0 -60 0 -8 0 -32 -3 -53
-6 -47 -7 -43 2 23 54 l49 39 -27 23 c-54 49 -87 65 -134 67 -47 2 -71 -11
-43 -22 8 -3 15 -13 15 -23 0 -13 -3 -14 -12 -5 -15 15 -32 16 -23 2 3 -5 2
-10 -4 -10 -6 0 -7 -8 -4 -17 6 -16 5 -16 -10 -4 -19 15 -22 5 -7 -19 7 -12
12 -12 22 -2 17 17 29 15 22 -3 -4 -8 -14 -15 -23 -16 -10 0 -11 -2 -3 -6 17
-7 15 -23 -2 -23 -8 0 -21 -8 -28 -18 -17 -24 -52 -38 -45 -18 7 17 -20 26
-56 19 -15 -3 -24 -10 -21 -17 8 -20 -32 -49 -55 -41 -29 9 -27 29 3 21 25 -6
46 19 23 27 -23 8 9 28 51 32 27 2 45 -1 53 -11 15 -18 24 -18 43 2 24 24 19
38 -23 64 -21 14 -37 28 -35 31 2 4 -13 -2 -33 -12 -21 -11 -51 -19 -68 -19
-40 0 -75 -10 -75 -21 0 -5 7 -9 16 -9 8 0 12 -5 9 -10 -5 -8 -12 -7 -22 1 -9
8 -17 9 -21 3 -9 -14 -45 -27 -37 -14 10 16 -22 12 -39 -5 -8 -8 -21 -15 -28
-15 -7 0 -24 -9 -37 -19 l-24 -18 32 -6 c36 -8 74 -37 47 -37 -8 0 -18 5 -21
10 -7 12 -36 14 -34 3 6 -35 -15 -46 -24 -13 -3 11 -11 20 -17 20 -10 0 -10
-3 0 -15 10 -12 10 -15 -4 -15 -14 0 -16 21 -16 185 0 160 2 186 16 192 11 4
12 8 4 13 -7 4 1 7 17 8 31 0 317 95 309 102 -2 3 12 6 32 7 51 2 300 47 308
56 12 11 14 8 7 -9z m206 3 c8 -11 5 -13 -19 -9 -17 2 -30 8 -30 13 0 14 36
11 49 -4z m-9 -44 c31 -21 50 -40 50 -48 0 -3 -14 4 -31 17 -17 13 -41 29 -52
35 -15 9 -17 13 -7 13 9 0 27 -8 40 -17z m191 -85 l22 -33 -31 29 c-34 32 -37
36 -23 36 5 0 20 -15 32 -32z m-691 -263 c0 -8 -4 -15 -10 -15 -5 0 -7 7 -4
15 4 8 8 15 10 15 2 0 4 -7 4 -15z m40 -30 c11 -13 8 -15 -14 -15 -25 0 -33
10 -19 23 10 11 19 8 33 -8z m-130 -5 c0 -5 -4 -10 -10 -10 -5 0 -10 5 -10 10
0 6 5 10 10 10 6 0 10 -4 10 -10z m-60 -72 c0 -5 -7 -8 -15 -8 -8 0 -15 -4
-15 -9 0 -5 -8 -11 -17 -15 -10 -3 -24 -9 -30 -12 -7 -3 -13 -1 -13 5 0 6 7
11 16 11 11 0 14 5 10 16 -5 12 -1 14 15 9 16 -5 22 -2 26 15 4 16 8 18 14 8
5 -7 9 -16 9 -20z m140 -24 c-18 -21 -24 -10 -9 18 8 14 14 18 17 10 2 -7 -2
-19 -8 -28z m162 21 c0 -5 -5 -11 -11 -13 -6 -2 -11 4 -11 13 0 9 5 15 11 13
6 -2 11 -8 11 -13z m-192 -35 c0 -5 -4 -10 -10 -10 -5 0 -10 5 -10 10 0 6 5
10 10 10 6 0 10 -4 10 -10z m-170 -50 c0 -5 -2 -10 -4 -10 -3 0 -8 5 -11 10
-3 6 -1 10 4 10 6 0 11 -4 11 -10z m1240 -50 c0 -5 -7 -7 -15 -4 -8 4 -12 10
-9 15 6 11 24 2 24 -11z m369 -14 c30 -14 39 -36 14 -36 -10 0 -14 -3 -8 -8
10 -7 12 -15 16 -102 1 -26 6 -40 15 -40 8 0 14 -5 14 -11 0 -6 -6 -9 -14 -6
-8 3 -17 -1 -20 -9 -5 -14 -56 -20 -56 -6 1 24 14 52 26 52 17 0 17 8 3 48 -6
17 -19 34 -30 37 -13 4 -18 13 -14 24 2 9 1 31 -4 49 -9 31 -9 33 12 26 12 -3
33 -11 46 -18z m-1754 -96 c5 -7 11 -8 19 -1 15 12 41 -3 32 -18 -4 -6 -11 -9
-16 -6 -15 9 -23 -17 -9 -27 10 -7 7 -7 -9 -3 -15 4 -24 1 -28 -9 -3 -9 -9
-16 -13 -16 -9 0 -13 69 -5 81 7 12 21 11 29 -1z m1693 -124 c3 -12 -1 -17
-10 -14 -7 3 -15 13 -16 22 -3 12 1 17 10 14 7 -3 15 -13 16 -22z m117 -6 c3
-5 -1 -10 -9 -10 -8 0 -18 5 -21 10 -3 6 1 10 9 10 8 0 18 -4 21 -10z m-1735
-40 c0 -5 -4 -10 -10 -10 -5 0 -10 5 -10 10 0 6 5 10 10 10 6 0 10 -4 10 -10z
m25 0 c3 -5 1 -10 -4 -10 -6 0 -11 5 -11 10 0 6 2 10 4 10 3 0 8 -4 11 -10z"/>
<path d="M2430 3130 c20 -13 33 -13 25 0 -3 6 -14 10 -23 10 -15 0 -15 -2 -2
-10z"/>
<path d="M2527 3132 c-21 -4 -18 -24 4 -30 12 -3 12 -2 0 6 -11 8 -9 11 10 14
13 1 20 6 14 9 -5 3 -18 4 -28 1z"/>
<path d="M1937 2981 c-5 -21 9 -51 25 -51 6 0 5 6 -3 16 -10 13 -10 17 0 24 8
4 10 13 7 19 -11 17 -23 13 -29 -8z"/>
<path d="M3114 2935 c3 -10 -1 -15 -12 -15 -14 0 -15 -2 -2 -9 8 -6 17 -8 21
-5 4 2 10 -3 13 -12 3 -8 10 -13 16 -9 12 8 -8 52 -27 60 -11 3 -13 1 -9 -10z"/>
<path d="M2318 2340 c-32 -33 -58 -65 -58 -72 0 -7 25 13 54 45 72 76 80 87
70 87 -5 0 -35 -27 -66 -60z"/>
<path d="M2840 2177 c0 -2 19 -17 43 -33 32 -21 52 -27 86 -26 51 2 66 -5 51
-23 -8 -10 -2 -11 30 -5 46 8 64 20 32 20 -11 0 -23 4 -26 9 -3 5 -18 11 -33
14 -27 5 -111 28 -160 43 -13 3 -23 4 -23 1z"/>
<path d="M2810 2122 c0 -32 5 -41 25 -50 23 -10 55 -7 55 5 0 3 -18 23 -40 44
l-40 39 0 -38z"/>
<path d="M2947 2074 c-16 -9 -27 -18 -24 -21 3 -2 22 5 44 16 21 11 31 20 23
20 -8 0 -28 -7 -43 -15z"/>
<path d="M3014 1994 c3 -9 6 -18 6 -20 0 -11 17 -2 28 16 11 18 10 20 -14 20
-20 0 -25 -4 -20 -16z"/>
<path d="M3088 1964 c-4 -3 -4 -12 -1 -20 7 -19 53 -18 53 1 0 8 -4 15 -9 15
-5 0 -16 2 -23 5 -8 3 -17 3 -20 -1z"/>
<path d="M3158 1939 c-20 -21 -23 -39 -9 -39 5 0 16 -3 25 -6 11 -4 16 0 16
14 0 12 5 24 10 27 16 10 11 25 -7 24 -10 0 -26 -9 -35 -20z"/>
<path d="M2200 1740 c-12 -8 -11 -10 7 -10 12 0 25 5 28 10 8 13 -15 13 -35 0z"/>
<path d="M2545 1660 c-9 -15 44 -20 143 -14 61 4 101 3 105 -3 3 -5 21 -7 39
-4 l33 5 -45 9 c-60 12 -268 18 -275 7z"/>
<path d="M2125 1629 l-40 -6 40 -2 c26 -1 35 -4 27 -10 -19 -12 11 -18 129
-26 61 -5 99 -4 103 3 9 15 -12 20 -70 17 -28 -2 -57 1 -65 6 -11 7 -10 9 5 9
11 0 16 3 12 7 -9 9 -87 10 -141 2z"/>
<path d="M2870 1636 c0 -2 13 -6 29 -8 17 -2 28 -1 25 4 -5 8 -54 12 -54 4z"/>
<path d="M2433 1623 c-45 -9 -22 -23 37 -23 47 0 60 3 60 15 0 13 -4 14 -21 4
-15 -8 -24 -8 -32 0 -6 6 -13 10 -16 10 -4 -1 -16 -4 -28 -6z"/>
<path d="M2935 1596 c-5 -3 -68 -8 -140 -12 -127 -7 -129 -7 -95 -22 27 -11
60 -13 150 -8 230 13 285 19 260 28 -26 10 -160 20 -175 14z"/>
<path d="M1840 1585 c0 -3 25 -17 55 -31 55 -24 57 -25 238 -18 100 3 186 10
191 15 6 6 4 9 -5 9 -20 0 -330 19 -411 25 -38 3 -68 3 -68 0z"/>
<path d="M1088 3964 c-33 -17 -61 -68 -53 -94 9 -28 82 -90 108 -91 12 0 43 0
68 1 36 1 52 -4 77 -25 36 -30 40 -46 16 -66 -13 -10 -19 -10 -36 0 -17 11
-23 10 -37 -4 -15 -15 -14 -18 8 -36 33 -27 64 -24 100 10 38 36 40 69 5 110
-38 45 -61 55 -136 56 -56 1 -71 4 -93 25 -14 13 -25 32 -25 42 0 24 27 35 50
20 14 -8 21 -7 34 7 15 16 15 19 -1 33 -28 24 -56 28 -85 12z"/>
<path d="M3832 3821 c-166 -150 -180 -175 -131 -227 58 -63 76 -56 219 82 125
121 133 140 79 193 -47 47 -68 42 -167 -48z m133 -6 c0 -21 -182 -205 -203
-205 -6 0 -16 8 -21 18 -8 14 7 34 87 115 68 68 103 97 117 95 12 -2 20 -11
20 -23z"/>
<path d="M3967 3604 c-81 -75 -147 -139 -147 -143 0 -3 13 -20 28 -38 l27 -31
168 97 c93 54 168 102 167 107 -7 38 -18 38 -77 2 -85 -52 -223 -127 -223
-122 0 6 34 39 154 151 72 67 77 74 63 93 -13 19 -20 14 -160 -116z"/>
<path d="M773 3608 c-6 -7 -22 -32 -37 -56 l-26 -42 167 -110 c163 -107 167
-109 181 -89 17 24 23 17 -70 75 -32 19 -58 40 -58 45 0 5 8 21 17 35 14 22
14 27 2 35 -18 11 -39 12 -39 1 0 -5 -6 -16 -13 -26 -13 -18 -16 -18 -60 9
-26 15 -50 31 -53 36 -3 5 4 23 16 39 18 25 19 34 10 45 -15 18 -25 19 -37 3z"/>
<path d="M4085 3430 c-88 -54 -160 -103 -159 -109 2 -26 5 -31 15 -31 8 0 269
152 337 196 6 4 -18 44 -26 43 -4 -1 -79 -45 -167 -99z"/>
<path d="M4143 3324 c-95 -46 -173 -87 -173 -91 0 -4 4 -15 10 -23 7 -12 20
-9 82 19 40 18 81 38 91 43 41 21 25 -3 -47 -73 -76 -72 -83 -83 -67 -107 9
-15 30 -6 253 102 107 52 117 59 108 77 -6 10 -13 19 -15 19 -2 0 -38 -15 -79
-34 -124 -57 -128 -53 -37 32 76 72 82 81 72 101 -7 11 -15 21 -19 20 -4 0
-85 -38 -179 -85z"/>
<path d="M647 3389 c-11 -6 -25 -26 -33 -45 -25 -60 -11 -76 146 -154 77 -38
150 -70 163 -70 44 0 87 71 72 119 -4 14 -51 43 -146 91 -141 70 -169 78 -202
59z m172 -99 c66 -33 122 -64 125 -69 9 -13 -3 -38 -20 -45 -19 -7 -253 109
-261 129 -5 16 13 45 28 45 5 0 63 -27 128 -60z"/>
<path d="M4248 3087 c-155 -51 -172 -64 -165 -119 7 -51 31 -78 72 -78 38 0
44 5 38 30 -3 11 -16 20 -32 22 -18 2 -27 10 -29 26 -3 18 5 26 40 40 76 33
226 75 242 69 20 -8 20 -35 1 -57 -16 -18 -11 -50 9 -50 6 0 22 7 34 16 29 20
30 81 1 118 -28 36 -57 33 -211 -17z"/>
<path d="M470 2930 c0 -22 26 -41 83 -61 63 -22 47 -39 -38 -39 -71 0 -75 -1
-75 -23 0 -23 0 -23 133 -19 95 3 150 -1 196 -12 70 -16 81 -15 81 14 0 15
-16 22 -88 39 -59 14 -119 38 -181 71 -51 27 -96 50 -102 50 -5 0 -9 -9 -9
-20z"/>
<path d="M4350 2863 c-91 -18 -175 -32 -187 -33 -32 0 -35 -13 -22 -80 10 -54
14 -60 36 -60 23 0 24 2 18 44 -4 24 -3 46 2 49 4 2 31 8 60 12 51 7 51 7 58
-24 5 -24 12 -31 31 -31 22 0 24 3 18 38 l-6 38 59 11 c67 12 73 10 73 -22 0
-39 10 -53 32 -47 18 4 20 10 14 60 -4 30 -10 60 -14 66 -5 9 -51 3 -172 -21z"/>
<path d="M427 2693 c-3 -5 -7 -39 -8 -78 -4 -66 -3 -70 19 -73 18 -3 22 1 22
22 0 31 -10 30 188 11 84 -9 157 -13 162 -10 14 9 12 45 -2 45 -7 0 -78 7
-158 15 -80 8 -153 15 -162 15 -13 0 -18 8 -18 30 0 23 -5 30 -19 30 -11 0
-22 -3 -24 -7z"/>
<path d="M418 2464 c-5 -4 -8 -18 -8 -31 l0 -23 200 0 200 0 0 25 0 25 -157 0
c-87 0 -174 3 -193 6 -19 3 -38 2 -42 -2z"/>
<path d="M4192 2414 c-12 -11 -25 -35 -28 -55 -5 -28 -1 -41 19 -64 24 -29 26
-29 173 -36 165 -8 189 -3 213 45 18 39 4 87 -32 104 -15 8 -86 15 -174 19
-135 5 -150 4 -171 -13z m306 -50 c17 -3 22 -10 20 -27 -4 -27 -40 -32 -186
-22 -105 7 -122 15 -109 50 5 12 27 13 129 9 68 -3 133 -7 146 -10z"/>
<path d="M764 2347 c-2 -7 -3 -29 -2 -48 l3 -34 -140 -12 c-77 -6 -155 -12
-172 -12 -28 -1 -33 -5 -33 -26 0 -30 0 -30 187 -15 218 17 213 16 213 53 0
68 -12 107 -32 107 -10 0 -21 -6 -24 -13z"/>
<path d="M4155 2200 c-4 -12 -5 -23 -3 -26 3 -2 31 -9 64 -14 112 -20 107 -17
101 -55 -3 -19 -2 -35 3 -35 5 0 15 -3 24 -6 11 -4 17 4 22 31 l7 37 51 -7
c28 -4 55 -9 59 -12 5 -3 7 -24 5 -46 -2 -34 1 -42 16 -45 27 -6 33 6 41 73
l6 61 -183 28 c-101 16 -188 31 -195 33 -6 2 -14 -5 -18 -17z"/>
<path d="M630 2116 l-185 -62 3 -30 c8 -65 2 -65 252 -38 74 7 141 14 148 14
8 0 12 9 10 23 -3 19 -10 22 -50 25 -45 3 -48 5 -48 31 0 22 7 29 35 40 27 9
35 18 35 37 0 13 -3 24 -7 23 -5 0 -91 -29 -193 -63z m78 -58 c2 -12 -10 -17
-55 -22 -32 -4 -71 -9 -88 -13 -50 -9 -18 11 53 33 74 24 86 24 90 2z"/>
<path d="M596 1871 c-28 -10 -58 -29 -69 -43 -19 -25 -19 -28 -2 -79 10 -30
20 -57 24 -61 3 -3 89 22 191 57 159 54 185 65 182 81 -6 29 -8 29 -75 6 -71
-26 -97 -28 -97 -8 0 7 -9 25 -21 40 -24 31 -60 33 -133 7z m102 -52 c16 -25
11 -31 -46 -52 -64 -25 -82 -23 -82 12 0 25 6 31 43 44 58 21 70 20 85 -4z"/>
<path d="M4050 1800 c-11 -11 -20 -24 -20 -29 0 -5 -13 -11 -30 -14 -39 -8
-44 -47 -5 -47 13 0 29 -8 34 -18 13 -25 295 -145 321 -137 30 10 60 54 60 91
0 36 -26 62 -82 84 -18 7 -53 21 -78 33 -149 66 -167 70 -200 37z m161 -76
c57 -25 112 -48 121 -51 34 -10 32 -63 -2 -63 -28 0 -244 97 -254 114 -10 14
7 46 24 46 4 0 54 -21 111 -46z"/>
<path d="M765 1679 c-93 -43 -171 -84 -172 -91 -2 -7 1 -19 5 -26 6 -9 32 -1
107 34 54 25 136 63 182 84 79 37 83 40 71 60 -7 11 -15 20 -18 19 -3 -1 -81
-37 -175 -80z"/>
<path d="M938 1638 c-24 -8 -26 -13 -18 -29 7 -12 21 -19 39 -19 26 0 41 -15
41 -40 0 -12 -229 -140 -251 -140 -25 0 -36 27 -20 53 11 16 10 22 -3 35 -14
14 -17 14 -35 -2 -29 -27 -34 -50 -17 -89 17 -42 48 -61 83 -52 47 11 275 148
285 171 13 27 5 64 -19 92 -23 26 -51 33 -85 20z"/>
<path d="M3955 1596 c-30 -30 -41 -70 -28 -99 6 -13 74 -60 159 -110 139 -83
149 -88 161 -71 17 23 20 21 -149 121 -71 41 -128 79 -128 83 0 23 14 40 33
40 11 0 80 -36 154 -80 73 -44 135 -80 138 -80 2 0 9 9 15 20 9 17 -4 28 -141
110 -84 49 -161 90 -171 90 -10 0 -30 -11 -43 -24z"/>
<path d="M964 1387 c-190 -133 -186 -130 -178 -150 3 -9 11 -17 16 -17 6 0 81
50 168 111 142 100 157 114 147 130 -7 11 -14 19 -17 19 -3 -1 -64 -42 -136
-93z"/>
<path d="M3822 1408 c-39 -50 -40 -54 -24 -71 16 -18 18 -18 43 13 30 36 46
35 92 -5 31 -28 33 -41 11 -67 -14 -14 -14 -20 -4 -33 13 -16 40 -21 40 -7 0
4 7 15 15 26 13 18 16 17 65 -19 52 -38 53 -43 16 -83 -21 -23 -21 -24 -2 -38
11 -8 22 -14 25 -14 8 1 73 93 73 103 -1 5 -65 58 -144 119 -79 61 -148 115
-154 119 -7 6 -25 -9 -52 -43z"/>
<path d="M1010 1274 c-80 -69 -146 -129 -148 -133 -1 -4 4 -14 13 -21 13 -11
27 -3 91 50 41 34 77 60 80 57 5 -5 -37 -81 -81 -145 -18 -27 -22 -40 -14 -54
5 -10 14 -18 20 -18 6 0 77 57 159 128 147 126 148 127 129 147 -19 19 -19 19
-61 -21 -62 -58 -110 -96 -116 -90 -2 3 21 46 52 96 49 79 54 93 44 110 -7 11
-15 20 -18 20 -3 0 -70 -57 -150 -126z"/>
<path d="M3692 1257 c-51 -51 -52 -54 -34 -70 17 -16 20 -15 47 13 16 17 34
30 40 30 6 0 40 -59 75 -131 36 -71 75 -140 88 -152 l23 -21 52 52 c49 49 51
53 34 69 -16 16 -19 15 -50 -15 -18 -18 -36 -32 -40 -32 -5 0 -36 58 -70 128
-55 113 -96 182 -109 182 -2 0 -27 -24 -56 -53z"/>
<path d="M1194 1093 c-54 -60 -109 -120 -123 -136 -24 -26 -24 -28 -8 -45 17
-16 21 -13 85 58 37 41 90 100 119 130 l52 55 21 -21 22 -21 -34 -39 c-18 -21
-68 -79 -110 -127 -43 -49 -78 -92 -78 -97 0 -14 31 -33 38 -24 5 5 44 50 88
99 168 190 169 191 109 244 -57 50 -71 44 -181 -76z"/>
<path d="M3570 1142 c-8 -2 -27 -16 -42 -30 -48 -44 -39 -67 73 -207 89 -110
104 -125 131 -125 38 0 84 32 92 65 8 32 -1 49 -103 178 -81 102 -116 130
-151 119z m117 -157 c45 -55 82 -110 83 -121 0 -24 -24 -38 -45 -27 -15 9
-175 212 -175 222 0 13 25 32 39 29 8 -2 52 -48 98 -103z"/>
<path d="M1459 1058 c-7 -13 -54 -88 -106 -167 -87 -133 -92 -144 -76 -157 45
-34 53 -31 144 67 48 52 89 92 92 89 5 -5 -11 -47 -71 -195 l-20 -51 33 -21
33 -22 93 147 c51 81 99 156 106 168 11 18 11 23 -5 38 -18 16 -22 13 -76 -73
-58 -92 -97 -138 -77 -90 59 136 80 203 70 215 -6 8 -17 14 -24 14 -7 0 -49
-38 -93 -85 -44 -47 -82 -85 -85 -85 -3 0 23 47 58 105 58 97 62 106 45 115
-26 14 -28 13 -41 -12z"/>
<path d="M3402 1018 c-7 -10 4 -36 39 -97 28 -46 48 -86 45 -88 -6 -6 -86 59
-130 106 -34 35 -34 35 -60 16 -18 -13 -14 -23 83 -185 92 -153 104 -169 122
-160 10 6 19 14 19 18 0 3 -23 44 -51 90 -28 46 -49 85 -46 88 5 6 56 -35 124
-100 39 -37 44 -39 67 -27 l24 13 -102 169 c-55 93 -106 169 -112 169 -6 0
-16 -6 -22 -12z"/>
<path d="M2315 763 c-11 -3 -26 -10 -32 -15 -16 -13 -17 -140 -2 -155 8 -8 7
-17 -5 -34 -21 -30 -21 -117 0 -147 22 -32 106 -32 128 0 22 31 21 126 -1 150
-13 14 -14 21 -5 30 16 16 16 143 0 155 -17 14 -59 21 -83 16z m49 -59 c21
-54 -7 -121 -39 -94 -15 13 -21 90 -8 103 12 13 41 7 47 -9z m-6 -153 c9 -5
12 -25 10 -62 -3 -50 -5 -54 -28 -54 -23 0 -25 4 -28 54 -3 49 6 71 28 71 3 0
11 -4 18 -9z"/>
<path d="M2523 760 c-12 -5 -26 -18 -32 -29 -17 -31 -14 -153 5 -179 16 -23
58 -30 69 -12 15 25 25 5 25 -50 0 -58 -1 -60 -26 -60 -17 0 -28 6 -31 20 -3
11 -14 20 -24 20 -27 0 -26 -55 0 -70 27 -14 94 -13 109 2 17 17 17 332 0 346
-20 15 -71 22 -95 12z m65 -113 c2 -54 0 -68 -13 -73 -29 -12 -45 15 -45 76 0
63 5 72 35 68 17 -3 20 -11 23 -71z"/>
<path d="M2745 763 c-29 -7 -45 -32 -45 -70 0 -26 4 -33 20 -33 14 0 20 7 20
24 0 29 22 49 44 40 12 -5 16 -19 16 -58 0 -48 -3 -55 -45 -96 -45 -44 -45
-45 -45 -112 l0 -68 66 0 c57 0 65 2 62 18 -2 12 -15 18 -46 20 -41 3 -42 4
-42 40 0 32 8 45 45 82 l45 44 0 72 c0 45 -5 75 -12 81 -17 14 -58 21 -83 16z"/>
<path d="M1780 703 c0 -54 -3 -63 -21 -68 -11 -4 -18 -9 -15 -12 3 -3 16 1 30
10 21 14 23 22 19 57 -3 22 -2 40 2 40 4 0 20 -14 35 -30 l29 -31 40 21 c46
23 49 19 21 -28 l-20 -33 27 -34 c15 -19 29 -32 32 -29 2 2 -5 14 -17 27 -27
29 -27 38 -1 89 23 45 23 45 -48 17 -32 -13 -34 -12 -73 26 l-40 39 0 -61z"/>
<path d="M2133 737 c-28 -28 -29 -47 -3 -47 19 0 20 -7 20 -150 0 -144 1 -150
20 -150 20 0 20 5 18 182 -3 199 -8 212 -55 165z"/>
<path d="M3154 719 c-25 -34 -33 -39 -59 -34 -22 4 -26 2 -15 -5 27 -18 47
-11 75 26 21 27 30 33 36 23 7 -11 9 -10 9 3 0 32 -17 27 -46 -13z"/>
<path d="M3035 673 c31 -47 31 -61 0 -103 -30 -40 -25 -51 16 -40 44 13 51 24
10 15 -36 -8 -36 -6 2 46 18 25 18 26 -10 72 -15 26 -32 47 -36 47 -4 0 4 -17
18 -37z"/>
<path d="M3180 682 c0 -17 4 -34 10 -37 6 -4 7 6 3 27 -8 44 -13 48 -13 10z"/>
<path d="M3240 623 l35 -16 -47 -14 c-48 -14 -48 -14 -48 -58 0 -25 -3 -45 -7
-45 -5 0 -18 16 -31 35 -12 19 -27 35 -33 35 -6 0 6 -20 27 -45 20 -25 39 -43
42 -40 4 3 9 27 12 52 5 45 6 46 53 60 26 7 47 16 47 19 0 6 -66 34 -77 33 -4
0 8 -8 27 -16z"/>
<path d="M1703 613 c-24 -9 -13 -21 25 -27 69 -13 72 -15 72 -54 0 -35 14 -72
23 -62 2 3 14 22 27 44 l23 38 54 -6 c36 -4 53 -3 53 5 0 6 -6 9 -13 6 -7 -3
-32 -2 -55 3 -42 7 -43 7 -66 -33 l-24 -40 -9 43 c-9 45 -19 55 -66 65 -15 3
-25 10 -22 15 7 11 -2 12 -22 3z"/>
</g>
</svg>
